<?xml version="1.0" standalone="no"?>
<!DOCTYPE svg PUBLIC "-//W3C//DTD SVG 20010904//EN"
 "http://www.w3.org/TR/2001/REC-SVG-20010904/DTD/svg10.dtd">
<svg version="1.0" xmlns="http://www.w3.org/2000/svg"
 width="700.000000pt" height="700.000000pt" viewBox="0 0 700.000000 700.000000"
 preserveAspectRatio="xMidYMid meet">
<metadata>
Created by potrace 1.11, written by Peter Selinger 2001-2013
</metadata>
<g transform="translate(0.000000,700.000000) scale(0.100000,-0.100000)"
fill="#000000" stroke="none">
<path d="M581 6985 c-136 -30 -256 -94 -355 -190 -105 -102 -168 -212 -206
-360 -20 -79 -20 -101 -17 -2960 2 -2642 4 -2884 19 -2933 85 -271 275 -454
543 -522 79 -19 108 -20 2930 -20 3086 0 2906 -3 3045 53 128 52 256 153 327
258 34 50 91 162 98 194 3 11 11 49 19 85 13 57 15 430 15 2915 0 2709 -1
2854 -18 2926 -64 274 -261 473 -541 548 -74 20 -100 20 -2935 20 -2394 -1
-2870 -3 -2924 -14z"/>
</g>
</svg>
