<svg width="161" height="23" viewBox="0 0 161 23" fill="none" xmlns="http://www.w3.org/2000/svg">
<path d="M28.2435 23C25.7479 23 23.7425 22.1871 22.2274 20.5613C20.7122 18.9132 19.9546 16.8976 19.9546 14.5145C19.9546 12.1315 20.7122 10.127 22.2274 8.50119C23.7425 6.87536 25.7479 6.06245 28.2435 6.06245C30.7614 6.06245 32.7779 6.87536 34.2931 8.50119C35.8083 10.127 36.5658 12.1315 36.5658 14.5145C36.5658 16.9198 35.8083 18.9354 34.2931 20.5613C32.7779 22.1871 30.7614 23 28.2435 23ZM28.2435 19.8931C29.6918 19.8931 30.8282 19.3809 31.6527 18.3564C32.4994 17.3096 32.9227 16.029 32.9227 14.5145C32.9227 13.0223 32.4994 11.764 31.6527 10.7395C30.8282 9.69272 29.6918 9.16933 28.2435 9.16933C26.8175 9.16933 25.6811 9.69272 24.8344 10.7395C24.0099 11.764 23.5977 13.0223 23.5977 14.5145C23.5977 16.029 24.0099 17.3096 24.8344 18.3564C25.6811 19.3809 26.8175 19.8931 28.2435 19.8931Z" fill="white"/>
<path d="M43.292 22.5991H39.7825V0.316376H43.292V22.5991Z" fill="white"/>
<path d="M70.7728 22.5991H66.8623V6.06245L60.0105 22.5991H58.3394L51.5211 6.06245V22.5991H47.6106V0.316376H53.1254L59.175 14.9822L65.2579 0.316376H70.7728V22.5991Z" fill="white"/>
<path d="M88.4522 22.5991H84.9428V20.8619C83.695 22.2873 81.957 23 79.7288 23C78.2582 23 76.9547 22.5323 75.8183 21.5969C74.6819 20.6392 74.1138 19.3252 74.1138 17.6548C74.1138 15.9399 74.6708 14.637 75.7849 13.7461C76.9213 12.8553 78.2359 12.4098 79.7288 12.4098C82.0239 12.4098 83.7619 13.1003 84.9428 14.4811V12.0758C84.9428 11.1404 84.5974 10.4054 83.9067 9.87089C83.216 9.33637 82.3024 9.06911 81.166 9.06911C79.3612 9.06911 77.768 9.74839 76.3865 11.107L74.9493 8.66822C76.7765 6.93104 79.0381 6.06245 81.7342 6.06245C83.7173 6.06245 85.3327 6.53015 86.5805 7.46556C87.8283 8.40096 88.4522 9.88202 88.4522 11.9087V22.5991ZM81.0992 20.5947C82.8594 20.5947 84.1407 20.0379 84.9428 18.9243V16.4855C84.1407 15.372 82.8594 14.8152 81.0992 14.8152C80.0965 14.8152 79.272 15.0824 78.6259 15.617C77.9797 16.1515 77.6566 16.853 77.6566 17.7216C77.6566 18.5902 77.9797 19.2918 78.6259 19.8263C79.272 20.3385 80.0965 20.5947 81.0992 20.5947Z" fill="white"/>
<path d="M98.1828 23C95.2861 23 92.9799 22.1648 91.2642 20.4944L92.8685 17.9555C93.4701 18.5791 94.2834 19.1136 95.3084 19.559C96.3334 20.0045 97.3472 20.2272 98.3499 20.2272C99.3749 20.2272 100.155 20.0267 100.689 19.6258C101.247 19.225 101.525 18.7016 101.525 18.0557C101.525 17.4766 101.191 17.0312 100.522 16.7194C99.8539 16.3853 99.0406 16.1292 98.0825 15.951C97.1244 15.7506 96.1663 15.5167 95.2081 15.2495C94.25 14.9599 93.4367 14.4588 92.7682 13.7461C92.0998 13.0335 91.7655 12.1092 91.7655 10.9733C91.7655 9.59249 92.3337 8.43437 93.4701 7.49896C94.6065 6.54129 96.1551 6.06245 98.1159 6.06245C100.589 6.06245 102.684 6.81968 104.399 8.33415L102.929 10.8063C102.416 10.2272 101.737 9.75953 100.89 9.40318C100.043 9.04684 99.1298 8.86867 98.1494 8.86867C97.2358 8.86867 96.5005 9.05798 95.9434 9.43659C95.4087 9.79294 95.1413 10.2606 95.1413 10.8397C95.1413 11.2851 95.3752 11.6526 95.8432 11.9421C96.3334 12.2094 96.935 12.4098 97.648 12.5435C98.3833 12.6771 99.1743 12.8664 100.021 13.1114C100.868 13.3341 101.648 13.6014 102.361 13.9132C103.096 14.225 103.698 14.7372 104.166 15.4499C104.656 16.1403 104.901 16.9867 104.901 17.9889C104.901 19.4588 104.31 20.6615 103.129 21.5969C101.948 22.5323 100.3 23 98.1828 23Z" fill="white"/>
<path d="M112.945 23C111.586 23 110.55 22.6436 109.837 21.931C109.146 21.2183 108.801 20.1938 108.801 18.8575V9.53681H106.127V6.46334H108.801V2.05356H112.31V6.46334H115.585V9.53681H112.31V17.9889C112.31 18.5679 112.444 19.0356 112.711 19.392C112.978 19.7261 113.357 19.8931 113.847 19.8931C114.561 19.8931 115.084 19.7038 115.418 19.3252L116.254 21.9644C115.519 22.6548 114.416 23 112.945 23Z" fill="white"/>
<path d="M125.891 23C123.44 23 121.412 22.2205 119.808 20.6615C118.226 19.0802 117.435 17.0312 117.435 14.5145C117.435 12.1537 118.204 10.1604 119.741 8.53459C121.301 6.88649 123.262 6.06245 125.624 6.06245C128.008 6.06245 129.924 6.88649 131.372 8.53459C132.843 10.1827 133.578 12.2874 133.578 14.8486V15.6838H121.111C121.245 16.9533 121.769 18.0112 122.682 18.8575C123.596 19.7038 124.788 20.127 126.259 20.127C127.083 20.127 127.908 19.9711 128.732 19.6593C129.579 19.3474 130.281 18.9132 130.838 18.3564L132.442 20.6615C130.815 22.2205 128.632 23 125.891 23ZM130.169 13.2116C130.125 12.098 129.712 11.107 128.932 10.2384C128.175 9.36978 127.072 8.93548 125.624 8.93548C124.242 8.93548 123.161 9.36978 122.382 10.2384C121.602 11.0847 121.167 12.0758 121.078 13.2116H130.169Z" fill="white"/>
<path d="M140.217 22.5991H136.708V6.46334H140.217V8.83526C140.841 8.03348 141.621 7.37647 142.557 6.86422C143.493 6.35198 144.462 6.09585 145.465 6.09585V9.57022C145.153 9.50341 144.785 9.47 144.362 9.47C143.627 9.47 142.836 9.69272 141.989 10.1381C141.164 10.5613 140.574 11.0513 140.217 11.6081V22.5991Z" fill="white"/>
<path d="M17.6604 22.5991H13.1482L8.20163 14.2807H4.32456V22.5991H0.414062V0.316376H10.207C12.3907 0.316376 14.1509 0.962252 15.4879 2.254C16.8248 3.54576 17.4932 5.22726 17.4932 7.29852C17.4932 9.16933 16.9807 10.6727 15.9558 11.8085C14.9308 12.9221 13.683 13.6014 12.2124 13.8464L17.6604 22.5991ZM9.67224 10.8397C10.7863 10.8397 11.6999 10.5168 12.4129 9.87089C13.126 9.22501 13.4825 8.36756 13.4825 7.29852C13.4825 6.22948 13.126 5.37203 12.4129 4.72615C11.6999 4.08028 10.7863 3.75734 9.67224 3.75734H4.32456V10.8397H9.67224Z" fill="#FF0000"/>
<path d="M160.414 4.99932C160.414 2.21668 158.196 0 155.412 0C152.652 0 150.411 2.21668 150.411 4.99932C150.411 7.75837 152.652 9.99863 155.412 9.99863C158.196 9.99863 160.414 7.75837 160.414 4.99932ZM159.683 4.99932C159.683 7.35749 157.772 9.29118 155.412 9.29118C153.029 9.29118 151.118 7.35749 151.118 4.99932C151.118 2.61757 153.029 0.731033 155.412 0.731033C157.772 0.731033 159.683 2.61757 159.683 4.99932ZM157.748 7.87628L156.214 5.58886C156.545 5.58886 157.677 5.16439 157.677 3.89098C157.677 2.8298 156.804 2.14593 155.837 2.14593H153.501V7.87628H154.28V5.61244H155.294L156.781 7.87628H157.748ZM156.875 3.89098C156.875 4.48052 156.332 4.90499 155.837 4.90499H154.28V2.8298H155.837C156.332 2.8298 156.875 3.25427 156.875 3.89098Z" fill="white"/>
</svg>
