<svg width="22" height="23" viewBox="0 0 22 23" fill="none" xmlns="http://www.w3.org/2000/svg">
<path d="M18 17.5556V13.6667C18 13.2246 18.158 12.8007 18.4393 12.4882C18.7206 12.1756 19.1022 12 19.5 12C19.8978 12 20.2794 12.1756 20.5607 12.4882C20.842 12.8007 21 13.2246 21 13.6667V18.6667C21 19.5507 20.6839 20.3986 20.1213 21.0237C19.5587 21.6488 18.7956 22 18 22C17.2044 22 16.4413 21.6488 15.8787 21.0237C15.3161 20.3986 15 19.5507 15 18.6667V15.3333" stroke="white" stroke-width="1.5" stroke-linecap="round" stroke-linejoin="round"/>
<path d="M10 16H6" stroke="white" stroke-width="1.5" stroke-linecap="round" stroke-linejoin="round"/>
<path d="M13 11H6" stroke="white" stroke-width="1.5" stroke-linecap="round" stroke-linejoin="round"/>
<path d="M13 6H6" stroke="white" stroke-width="1.5" stroke-linecap="round" stroke-linejoin="round"/>
<path d="M17 7.66667V3.22222C17 2.63285 16.7752 2.06762 16.3752 1.65087C15.9751 1.23413 15.4325 1 14.8667 1H3.13333C2.56754 1 2.02492 1.23413 1.62484 1.65087C1.22476 2.06762 1 2.63285 1 3.22222V18.7778C1 19.3671 1.22476 19.9324 1.62484 20.3491C2.02492 20.7659 2.56754 21 3.13333 21H9.53333" stroke="white" stroke-width="1.5" stroke-linecap="round" stroke-linejoin="round"/>
</svg>
