<svg width="22" height="35" viewBox="0 0 22 35" fill="none" xmlns="http://www.w3.org/2000/svg">
<g clip-path="url(#clip0)">
<path d="M18.7002 20.422C18.4172 20.422 18.1482 20.482 17.9032 20.587C17.7549 20.2097 17.4967 19.8856 17.162 19.6569C16.8273 19.4281 16.4316 19.3052 16.0262 19.304C15.7102 19.304 15.4112 19.378 15.1452 19.509C14.9758 19.1797 14.7191 18.9033 14.4033 18.71C14.0874 18.5167 13.7245 18.414 13.3542 18.413C13.1242 18.413 12.9052 18.452 12.7002 18.523V16.283C12.7012 15.7457 12.4892 15.23 12.1105 14.8489C11.7318 14.4678 11.2174 14.2524 10.6802 14.25C10.1428 14.2526 9.62845 14.4682 9.2498 14.8495C8.87114 15.2308 8.65911 15.7466 8.66018 16.284V24.34L7.20618 22.676C7.01757 22.4775 6.79068 22.3194 6.53922 22.2111C6.28776 22.1028 6.01696 22.0467 5.74318 22.046H5.73318C5.19318 22.046 4.68818 22.255 4.30918 22.634C3.64118 23.302 3.60418 24.294 4.20818 25.354C4.98918 26.728 5.83818 28.023 6.58818 29.165C7.13618 30 7.65418 30.788 8.03218 31.44C8.36018 32.006 9.23118 33.841 9.24018 33.86C9.35318 34.098 9.59318 34.25 9.85718 34.25H18.4942C18.7912 34.25 19.0542 34.059 19.1442 33.776C19.3062 33.276 20.7192 28.834 20.7192 27.118V22.456C20.7202 21.9186 20.5082 21.4028 20.1296 21.0215C19.7509 20.6402 19.2365 20.4246 18.6992 20.422H18.7002ZM18.0462 22.456C18.0453 22.3693 18.0614 22.2833 18.0937 22.2029C18.126 22.1225 18.1739 22.0492 18.2345 21.9872C18.2952 21.9253 18.3674 21.8759 18.4471 21.8419C18.5269 21.8079 18.6125 21.7899 18.6992 21.789C19.0592 21.789 19.3532 22.089 19.3532 22.456V27.118C19.3532 28.258 18.4772 31.323 17.9932 32.884H10.2872C10.0042 32.294 9.47318 31.203 9.21418 30.755C8.81718 30.07 8.28918 29.266 7.73118 28.415C6.99218 27.29 6.15518 26.015 5.39518 24.679C5.19718 24.33 5.01518 23.859 5.27518 23.599C5.39869 23.4803 5.56311 23.4137 5.73438 23.413C5.90565 23.4123 6.07064 23.4774 6.19518 23.595L8.83018 26.61C8.9217 26.7146 9.04295 26.7888 9.17773 26.8226C9.31252 26.8565 9.45443 26.8485 9.58452 26.7995C9.71461 26.7506 9.82668 26.6632 9.90578 26.5489C9.98487 26.4347 10.0272 26.299 10.0272 26.16V16.284C10.0272 15.916 10.3202 15.616 10.6812 15.616C11.0412 15.616 11.3342 15.916 11.3342 16.284V22.662C11.3342 22.8431 11.4061 23.0169 11.5342 23.145C11.6623 23.273 11.836 23.345 12.0172 23.345C12.1983 23.345 12.372 23.273 12.5001 23.145C12.6282 23.0169 12.7002 22.8431 12.7002 22.662V20.446C12.7002 20.078 12.9932 19.779 13.3542 19.779C13.7142 19.779 14.0072 20.079 14.0072 20.446V23.553C14.0072 23.7341 14.0791 23.9079 14.2072 24.036C14.3353 24.164 14.509 24.236 14.6902 24.236C14.8713 24.236 15.045 24.164 15.1731 24.036C15.3012 23.9079 15.3732 23.7341 15.3732 23.553V21.338C15.3732 20.97 15.6662 20.67 16.0262 20.67C16.3862 20.67 16.6802 20.97 16.6802 21.338V24.444C16.6802 24.6251 16.7521 24.7989 16.8802 24.927C17.0083 25.055 17.182 25.127 17.3632 25.127C17.5443 25.127 17.718 25.055 17.8461 24.927C17.9742 24.7989 18.0462 24.6251 18.0462 24.444V22.456ZM6.39318 10.136C7.72318 7.919 9.62518 7.5 10.7502 7.5C11.8752 7.5 13.7772 7.92 15.1072 10.136C15.2106 10.3044 15.3763 10.4252 15.5682 10.4722C15.7602 10.5191 15.9629 10.4884 16.1324 10.3867C16.3018 10.285 16.4243 10.1205 16.4731 9.92897C16.5219 9.73747 16.4932 9.53444 16.3932 9.364C14.7232 6.581 12.2532 6 10.7502 6C9.24818 6 6.77718 6.58 5.10718 9.364C5.00714 9.53444 4.97842 9.73747 5.02725 9.92897C5.07609 10.1205 5.19853 10.285 5.36797 10.3867C5.53742 10.4884 5.74016 10.5191 5.93213 10.4722C6.1241 10.4252 6.28979 10.3044 6.39318 10.136Z" fill="#BBBBBB"/>
<path opacity="0.4" d="M1.39291 7.136C4.22291 2.419 8.31091 1.5 10.7499 1.5C13.1899 1.5 17.2769 2.42 20.1069 7.136C20.1571 7.22148 20.2237 7.29617 20.3029 7.35574C20.3821 7.41532 20.4724 7.45861 20.5684 7.4831C20.6644 7.50759 20.7644 7.5128 20.8625 7.49844C20.9605 7.48407 21.0548 7.4504 21.1397 7.39939C21.2247 7.34838 21.2987 7.28102 21.3575 7.20123C21.4163 7.12143 21.4587 7.03077 21.4823 6.93449C21.5058 6.83821 21.51 6.73822 21.4947 6.6403C21.4794 6.54238 21.4448 6.44847 21.3929 6.364C18.2229 1.081 13.5659 0 10.7499 0C7.93391 0 3.27691 1.08 0.106911 6.364C0.0550591 6.44847 0.0204647 6.54238 0.00512748 6.6403C-0.0102098 6.73822 -0.00598563 6.83821 0.0175557 6.93449C0.041097 7.03077 0.0834885 7.12143 0.14228 7.20123C0.201071 7.28102 0.275096 7.34838 0.360075 7.39939C0.445054 7.4504 0.539302 7.48407 0.63737 7.49844C0.735439 7.5128 0.835383 7.50759 0.931424 7.4831C1.02747 7.45861 1.1177 7.41532 1.19691 7.35574C1.27612 7.29617 1.34274 7.22148 1.39291 7.136Z" fill="#BBBBBB"/>
</g>
<defs>
<clipPath id="clip0">
<rect width="22" height="35" fill="white"/>
</clipPath>
</defs>
</svg>
