<svg width="110" height="110" viewBox="0 0 110 110" fill="none" xmlns="http://www.w3.org/2000/svg">
<g clip-path="url(#clip0)">
<path d="M54.9997 98.9149C79.2531 98.9149 98.9144 79.2536 98.9144 55.0002C98.9144 30.7467 79.2531 11.0854 54.9997 11.0854C30.7463 11.0854 11.085 30.7467 11.085 55.0002C11.085 79.2536 30.7463 98.9149 54.9997 98.9149Z" fill="white"/>
<path d="M54.9997 98.9149C79.2531 98.9149 98.9144 79.2536 98.9144 55.0002C98.9144 30.7467 79.2531 11.0854 54.9997 11.0854C30.7463 11.0854 11.085 30.7467 11.085 55.0002C11.085 79.2536 30.7463 98.9149 54.9997 98.9149Z" fill="url(#paint0_linear)"/>
<path d="M55.0004 109.574C85.1406 109.574 109.574 85.1401 109.574 54.9999C109.574 24.8597 85.1406 0.42627 55.0004 0.42627C24.8602 0.42627 0.426758 24.8597 0.426758 54.9999C0.426758 85.1401 24.8602 109.574 55.0004 109.574Z" stroke="#F74848"/>
<path d="M61.3955 56.4769C62.5322 55.8204 62.5322 54.1797 61.3955 53.5231L53.0816 48.7224C51.9449 48.0666 50.5234 48.8869 50.5234 50.2001V59.8C50.5234 61.1131 51.9449 61.9335 53.0816 61.2769L61.3955 56.4769Z" fill="white"/>
</g>
<defs>
<linearGradient id="paint0_linear" x1="98.9144" y1="55.4265" x2="11.085" y2="55.4265" gradientUnits="userSpaceOnUse">
<stop stop-color="#FF0000" stop-opacity="0.47"/>
<stop offset="1" stop-color="#FF0000" stop-opacity="0.94"/>
</linearGradient>
<clipPath id="clip0">
<rect width="110" height="110" fill="white"/>
</clipPath>
</defs>
</svg>
