<svg width="30" height="35" viewBox="0 0 30 35" fill="none" xmlns="http://www.w3.org/2000/svg">
<path d="M14.5 17L17 14.5L20.5 18L18 20.5L17.5 20L14.5 17Z" fill="#FF6B00"/>
<path d="M9.5 21.5L12 19L16 22.5001L13 25.0001L9.5 21.5Z" fill="#2F80ED"/>
<path d="M19 12L21.5 9.5L25 13L22.5 15L19 12Z" fill="#1A1A1A"/>
<path d="M28.2274 10.9413L23.4689 6.2722C23.4397 6.24353 23.4053 6.2241 23.375 6.19707L23.3756 6.19618L23.3649 6.18895C23.1922 6.03568 23.0044 5.91189 22.8066 5.81128L17.7061 2.36069C17.2706 1.99454 16.7406 1.79419 16.1897 1.75331L16.1907 1.74849L10.4698 0.592345C9.45342 0.367648 8.41081 0.677223 7.68128 1.42071C7.265 1.84496 6.98692 2.37751 6.88613 2.91527L0.886885 25.5098C0.00712645 26.5649 0.05988 28.1347 1.05694 29.113L5.81546 33.7822C6.86471 34.8118 8.55643 34.7962 9.58651 33.7464L28.2631 14.7124C29.2932 13.6626 29.2767 11.9709 28.2274 10.9413ZM8.18533 3.21052C8.24669 2.8858 8.4018 2.59021 8.63301 2.35457C9.03835 1.94147 9.61777 1.76932 10.1935 1.89645L13.9708 2.66034C13.833 2.82062 13.7114 2.99467 13.6162 3.18623L3.15397 22.1652L8.18533 3.21052ZM19.6978 6.30794L5.36466 20.9154L14.796 3.80573C14.9798 3.438 15.3158 3.17932 15.7183 3.09626C16.1213 3.0128 16.5324 3.11617 16.9032 3.42251L20.4144 5.80049C20.1563 5.92907 19.9108 6.0909 19.6978 6.30794ZM8.63482 32.8126C8.12005 33.3372 7.27439 33.3457 6.74932 32.8305L1.9908 28.1613C1.46568 27.646 1.45815 26.8004 1.97293 26.2758L20.6495 7.2418C21.0353 6.84864 21.6067 6.7456 22.09 6.9353L22.5773 7.26538L27.2936 11.8931C27.8187 12.4084 27.8262 13.254 27.3114 13.7786L8.63482 32.8126Z" fill="#FF0000"/>
<path d="M9.03917 25.7374C8.25196 24.965 6.98329 24.977 6.21087 25.7642C5.43844 26.5514 5.45047 27.8201 6.23767 28.5925C7.02488 29.3649 8.29355 29.3529 9.06597 28.5657C9.8384 27.7785 9.82637 26.5098 9.03917 25.7374ZM7.17149 27.6408C6.9094 27.3836 6.9049 26.9606 7.16255 26.698C7.42016 26.4355 7.84326 26.4319 8.10535 26.6891C8.36744 26.9462 8.37193 27.3693 8.11428 27.6319C7.85668 27.8944 7.43358 27.898 7.17149 27.6408Z" fill="#FF0000"/>
<path d="M25.8838 12.3778L22.0771 8.64251C21.814 8.38442 21.3923 8.38842 21.1343 8.65144L18.3328 11.5065C18.0747 11.7696 18.0787 12.1913 18.3417 12.4493L22.1485 16.1847C22.4115 16.4427 22.8332 16.4387 23.0913 16.1757L25.8928 13.3206C26.1508 13.0576 26.1469 12.6359 25.8838 12.3778ZM22.6065 14.766L19.7514 11.9645L21.6191 10.0611L24.4742 12.8626L22.6065 14.766Z" fill="#FF0000"/>
<path d="M21.2147 17.1363L17.4079 13.401C17.1449 13.1429 16.7232 13.1469 16.4651 13.4099L13.6636 16.265C13.4056 16.528 13.4095 16.9497 13.6726 17.2078L17.4794 20.9431C17.7424 21.2012 18.1641 21.1972 18.4222 20.9342L21.2237 18.0791C21.4817 17.816 21.4777 17.3944 21.2147 17.1363ZM17.9374 19.5245L15.0823 16.723L16.9499 14.8195L19.805 17.621L17.9374 19.5245Z" fill="#FF0000"/>
<path d="M16.5455 21.8948L12.7387 18.1595C12.4757 17.9014 12.054 17.9054 11.7959 18.1684L8.99445 21.0235C8.73637 21.2866 8.74036 21.7082 9.00339 21.9663L12.8102 25.7016C13.0732 25.9597 13.4949 25.9557 13.753 25.6927L16.5545 22.8376C16.8125 22.5745 16.8086 22.1529 16.5455 21.8948ZM13.2682 24.283L10.4131 21.4815L12.2807 19.5781L15.1359 22.3796L13.2682 24.283Z" fill="#FF0000"/>
</svg>
