<svg width="26" height="32" viewBox="0 0 26 32" fill="none" xmlns="http://www.w3.org/2000/svg">
<path d="M25.5769 2.03803C25.5795 1.71073 25.3163 1.44329 24.989 1.44069C24.9036 1.44003 24.8191 1.45781 24.7413 1.49277C21.0085 3.23004 16.6147 2.70916 13.3916 0.147409C13.1678 -0.0491362 12.833 -0.0491362 12.6093 0.147409C9.3726 2.67641 4.99779 3.195 1.25958 1.49277C0.961021 1.35853 0.610233 1.49181 0.475993 1.7903C0.441025 1.86816 0.423244 1.95261 0.423911 2.03803C0.423911 2.16249 0.465398 14.3834 0.423911 18.4313C0.400204 20.5946 5.44977 27.6178 12.6982 31.9206C12.8815 32.0264 13.1075 32.0264 13.2908 31.9206C20.5511 27.6178 25.6006 20.5946 25.5769 18.4313C25.5354 14.3834 25.5769 2.16249 25.5769 2.03803ZM24.3916 18.4373C24.3916 19.7412 20.2429 26.2902 13.0004 30.7174C5.73425 26.2961 1.5974 19.7471 1.60926 18.4432C1.64482 15.0235 1.62111 5.81928 1.60926 2.91519C5.43251 4.31419 9.70086 3.72344 13.0004 1.33868C16.3 3.72344 20.5683 4.31419 24.3916 2.91519C24.3916 5.81335 24.3619 15.0235 24.3916 18.4373Z" fill="#FF0000"/>
<path d="M22.483 5.64192C22.4855 5.31462 22.2223 5.04717 21.895 5.04458C21.8097 5.04391 21.7251 5.06169 21.6473 5.09666C18.938 6.37039 15.7414 6.00323 13.3914 4.14839C13.1676 3.95184 12.8328 3.95184 12.609 4.14839C10.2585 5.98174 7.08362 6.35631 4.37089 5.12037C4.07233 4.98613 3.72154 5.1194 3.5873 5.41789C3.55233 5.49575 3.53455 5.58028 3.53522 5.66563C3.53522 5.75453 3.56485 14.8046 3.53522 17.8036C3.51744 19.4334 7.28683 24.7082 12.6979 27.9205C12.8813 28.0263 13.1072 28.0263 13.2906 27.9205C18.7136 24.7082 22.483 19.4334 22.483 17.7798C22.4533 14.7809 22.483 5.73675 22.483 5.64192ZM21.2976 17.7798C21.2976 18.6155 18.3342 23.4339 13.0002 26.6699C7.70763 23.4162 4.70278 18.5977 4.70278 17.7798C4.74427 15.3617 4.70278 8.88976 4.70278 6.51907C7.49634 7.50158 10.5935 7.05915 13.0002 5.33373C15.4069 7.05915 18.504 7.50158 21.2976 6.51907V17.7798Z" fill="#FF0000"/>
</svg>
