<svg width="34" height="32" viewBox="0 0 34 32" fill="none" xmlns="http://www.w3.org/2000/svg">
<path d="M16.2283 14.1176H18.6635H18.8235V13.9576L16.2283 14.1176ZM16.2283 14.1176C15.7337 14.1163 15.2438 14.2131 14.7868 14.4023M16.2283 14.1176L14.7868 14.4023M14.7868 14.4023C14.3299 14.5916 13.915 14.8696 13.5662 15.2203L14.7868 14.4023ZM18.8235 14.2776H18.9835V14.1176V7.5294C18.9835 5.57491 19.7599 3.70048 21.142 2.31845C22.524 0.936417 24.3984 0.16 26.3529 0.16C28.3074 0.16 30.1818 0.936417 31.5639 2.31845C32.9459 3.70048 33.7223 5.57491 33.7223 7.5294V14.1176C33.7223 14.2508 33.6883 14.3817 33.6234 14.498C33.5586 14.6143 33.4651 14.7121 33.3518 14.7821C33.2386 14.8521 33.1093 14.892 32.9762 14.898C32.8432 14.904 32.7109 14.8758 32.5918 14.8163L32.5202 14.9594L32.5917 14.8163L28.827 12.9339C28.6973 12.8691 28.5882 12.7693 28.5119 12.6459C28.4357 12.5225 28.3953 12.3803 28.3953 12.2353V7.5294C28.3953 6.98774 28.1801 6.46826 27.7971 6.08524C27.4141 5.70223 26.8946 5.48705 26.3529 5.48705C25.8112 5.48705 25.2918 5.70223 24.9087 6.08524C24.5257 6.46826 24.3106 6.98774 24.3106 7.5294V18.0015V18.1253L24.4303 18.1564C25.2037 18.3572 25.8886 18.8088 26.3779 19.4404C26.8671 20.0721 27.1331 20.8482 27.1341 21.6472V28.2351C27.133 29.1908 26.7529 30.1071 26.0771 30.7829C25.4012 31.4587 24.4849 31.8389 23.5292 31.84H18.1107H18.1102C15.4805 31.8473 12.9466 30.8531 11.0236 29.0594L10.9775 29.0164H10.9145H9.41175H9.25175V29.1764V30.1176C9.25175 30.3248 9.16945 30.5235 9.02295 30.67C8.87645 30.8165 8.67776 30.8988 8.47058 30.8988H0.16V29.3364H7.5294H7.6894V29.1764V17.8823V17.7223H7.5294H0.16V16.16H8.47058C8.67776 16.16 8.87645 16.2423 9.02295 16.3888C9.16945 16.5353 9.25175 16.734 9.25175 16.9412V17.8823V18.0423H9.41175H10.9043H10.9706L11.0175 17.9955L13.6794 15.3335L13.6797 15.3332C14.0135 14.9975 14.4107 14.7313 14.8481 14.5502C15.2855 14.369 15.7545 14.2763 16.2279 14.2776H16.2283H18.8235ZM25.5717 21.647V21.6468L16.2288 15.84L16.2283 16V15.84H16.2284C15.9601 15.8393 15.6943 15.8918 15.4464 15.9945C15.1984 16.0972 14.9732 16.2481 14.7839 16.4385L11.8465 19.3759C11.774 19.4484 11.6878 19.506 11.5931 19.5452C11.4983 19.5845 11.3967 19.6047 11.2941 19.6047H9.41175H9.25175V19.7647V27.2941V27.4541H9.41175H11.2941C11.3967 27.4541 11.4983 27.4743 11.5931 27.5135C11.6878 27.5528 11.7738 27.6103 11.8464 27.6827C12.6671 28.508 13.6434 29.1622 14.7187 29.6076C15.7941 30.0531 16.9471 30.2808 18.1111 30.2776H23.5294H23.5296C24.071 30.277 24.59 30.0616 24.9729 29.6788C25.3557 29.2959 25.5711 28.7769 25.5717 28.2354V28.2353V21.647ZM17.1012 18.0423V17.8823H16.9412V18.0423H17.1012ZM16.9412 19.6047V19.7647H17.1012V19.6047H16.9412ZM31.9284 12.7379L32.16 12.8537V12.5948V7.5294C32.16 5.98928 31.5481 4.51223 30.4591 3.4232C29.3701 2.33416 27.893 1.72235 26.3529 1.72235C24.8128 1.72235 23.3357 2.33416 22.2467 3.4232C21.1577 4.51223 20.5459 5.98928 20.5459 7.5294V17.8823V18.0423H20.7059H22.5882H22.7482V17.8823V7.5294C22.7482 6.57338 23.128 5.65651 23.804 4.98049C24.48 4.30448 25.3969 3.9247 26.3529 3.9247C27.3089 3.9247 28.2258 4.30448 28.9018 4.98049C29.5778 5.65651 29.9576 6.57338 29.9576 7.5294V11.6536V11.7525L30.0461 11.7967L31.9284 12.7379Z" fill="#FF0000" stroke="#F5F7FA" stroke-width="0.32"/>
</svg>
