<svg width="45" height="7" viewBox="0 0 45 7" fill="none" xmlns="http://www.w3.org/2000/svg">
<path d="M2.0345 6.93342C1.93791 6.98384 1.82911 7.00619 1.72046 6.99794C1.61181 6.98968 1.50764 6.95115 1.41976 6.88671C1.33189 6.82228 1.26383 6.73451 1.22329 6.63336C1.18276 6.53222 1.17137 6.42174 1.19042 6.31445L1.50496 4.51159L0.180712 3.24255C0.101387 3.1669 0.0449872 3.07043 0.0179796 2.9642C-0.00902809 2.85796 -0.00554993 2.74627 0.0280151 2.64192C0.0615801 2.53757 0.123873 2.44479 0.207751 2.37423C0.291629 2.30366 0.393696 2.25816 0.502249 2.24295L2.34088 1.98012L3.17096 0.324227C3.21921 0.22687 3.2937 0.144929 3.38603 0.087642C3.47836 0.0303548 3.58485 0 3.69351 0C3.80216 0 3.90866 0.0303548 4.00099 0.087642C4.09332 0.144929 4.1678 0.22687 4.21605 0.324227L5.04614 1.98012L6.88477 2.24295C6.99332 2.25816 7.09539 2.30366 7.17927 2.37423C7.26314 2.44479 7.32544 2.53757 7.359 2.64192C7.39257 2.74627 7.39604 2.85796 7.36904 2.9642C7.34203 3.07043 7.28563 3.1669 7.2063 3.24255L5.88206 4.51159L6.19659 6.31484C6.21565 6.42213 6.20426 6.53261 6.16372 6.63375C6.12319 6.7349 6.05512 6.82267 5.96725 6.8871C5.87938 6.95154 5.77521 6.99007 5.66656 6.99832C5.5579 7.00658 5.44911 6.98423 5.35251 6.9338L3.69351 6.0765L2.0345 6.93342Z" fill="#FFC000"/>
<path d="M11.3656 6.93342C11.269 6.98384 11.1602 7.00619 11.0515 6.99794C10.9429 6.98968 10.8387 6.95115 10.7508 6.88671C10.6629 6.82228 10.5949 6.73451 10.5543 6.63336C10.5138 6.53222 10.5024 6.42174 10.5215 6.31445L10.836 4.51159L9.51177 3.24255C9.43244 3.1669 9.37604 3.07043 9.34903 2.9642C9.32203 2.85796 9.3255 2.74627 9.35907 2.64192C9.39263 2.53757 9.45493 2.44479 9.53881 2.37423C9.62268 2.30366 9.72475 2.25816 9.8333 2.24295L11.6719 1.98012L12.502 0.324227C12.5503 0.22687 12.6248 0.144929 12.7171 0.087642C12.8094 0.0303548 12.9159 0 13.0246 0C13.1332 0 13.2397 0.0303548 13.332 0.087642C13.4244 0.144929 13.4989 0.22687 13.5471 0.324227L14.3772 1.98012L16.2158 2.24295C16.3244 2.25816 16.4264 2.30366 16.5103 2.37423C16.5942 2.44479 16.6565 2.53757 16.6901 2.64192C16.7236 2.74627 16.7271 2.85796 16.7001 2.9642C16.6731 3.07043 16.6167 3.1669 16.5374 3.24255L15.2131 4.51159L15.5276 6.31484C15.5467 6.42213 15.5353 6.53261 15.4948 6.63375C15.4542 6.7349 15.3862 6.82267 15.2983 6.8871C15.2104 6.95154 15.1063 6.99007 14.9976 6.99832C14.889 7.00658 14.7802 6.98423 14.6836 6.9338L13.0246 6.0765L11.3656 6.93342Z" fill="#FFC000"/>
<path d="M20.6966 6.93342C20.6 6.98384 20.4912 7.00619 20.3826 6.99794C20.2739 6.98968 20.1697 6.95115 20.0819 6.88671C19.994 6.82228 19.9259 6.73451 19.8854 6.63336C19.8449 6.53222 19.8335 6.42174 19.8525 6.31445L20.1671 4.51159L18.8428 3.24255C18.7635 3.1669 18.7071 3.07043 18.6801 2.9642C18.6531 2.85796 18.6566 2.74627 18.6901 2.64192C18.7237 2.53757 18.786 2.44479 18.8699 2.37423C18.9537 2.30366 19.0558 2.25816 19.1644 2.24295L21.003 1.98012L21.8331 0.324227C21.8813 0.22687 21.9558 0.144929 22.0481 0.087642C22.1405 0.0303548 22.247 0 22.3556 0C22.4643 0 22.5708 0.0303548 22.6631 0.087642C22.7554 0.144929 22.8299 0.22687 22.8782 0.324227L23.7082 1.98012L25.5469 2.24295C25.6554 2.25816 25.7575 2.30366 25.8414 2.37423C25.9253 2.44479 25.9875 2.53757 26.0211 2.64192C26.0547 2.74627 26.0582 2.85796 26.0311 2.9642C26.0041 3.07043 25.9477 3.1669 25.8684 3.24255L24.5442 4.51159L24.8587 6.31484C24.8778 6.42213 24.8664 6.53261 24.8258 6.63375C24.7853 6.7349 24.7172 6.82267 24.6294 6.8871C24.5415 6.95154 24.4373 6.99007 24.3287 6.99832C24.22 7.00658 24.1112 6.98423 24.0146 6.9338L22.3556 6.0765L20.6966 6.93342Z" fill="#FFC000"/>
<path d="M30.0277 6.93342C29.9311 6.98384 29.8223 7.00619 29.7136 6.99794C29.605 6.98968 29.5008 6.95115 29.4129 6.88671C29.3251 6.82228 29.257 6.73451 29.2165 6.63336C29.1759 6.53222 29.1645 6.42174 29.1836 6.31445L29.4981 4.51159L28.1739 3.24255C28.0946 3.1669 28.0382 3.07043 28.0111 2.9642C27.9841 2.85796 27.9876 2.74627 28.0212 2.64192C28.0547 2.53757 28.117 2.44479 28.2009 2.37423C28.2848 2.30366 28.3869 2.25816 28.4954 2.24295L30.334 1.98012L31.1641 0.324227C31.2124 0.22687 31.2869 0.144929 31.3792 0.087642C31.4715 0.0303548 31.578 0 31.6867 0C31.7953 0 31.9018 0.0303548 31.9942 0.087642C32.0865 0.144929 32.161 0.22687 32.2092 0.324227L33.0393 1.98012L34.8779 2.24295C34.9865 2.25816 35.0886 2.30366 35.1724 2.37423C35.2563 2.44479 35.3186 2.53757 35.3522 2.64192C35.3857 2.74627 35.3892 2.85796 35.3622 2.9642C35.3352 3.07043 35.2788 3.1669 35.1995 3.24255L33.8752 4.51159L34.1898 6.31484C34.2088 6.42213 34.1974 6.53261 34.1569 6.63375C34.1164 6.7349 34.0483 6.82267 33.9604 6.8871C33.8725 6.95154 33.7684 6.99007 33.6597 6.99832C33.5511 7.00658 33.4423 6.98423 33.3457 6.9338L31.6867 6.0765L30.0277 6.93342Z" fill="#FFC000"/>
<path d="M39.3587 6.93342C39.2621 6.98384 39.1533 7.00619 39.0447 6.99794C38.936 6.98968 38.8319 6.95115 38.744 6.88671C38.6561 6.82228 38.588 6.73451 38.5475 6.63336C38.507 6.53222 38.4956 6.42174 38.5146 6.31445L38.8292 4.51159L37.5049 3.24255C37.4256 3.1669 37.3692 3.07043 37.3422 2.9642C37.3152 2.85796 37.3187 2.74627 37.3522 2.64192C37.3858 2.53757 37.4481 2.44479 37.532 2.37423C37.6158 2.30366 37.7179 2.25816 37.8265 2.24295L39.6651 1.98012L40.4952 0.324227C40.5434 0.22687 40.6179 0.144929 40.7102 0.087642C40.8026 0.0303548 40.9091 0 41.0177 0C41.1264 0 41.2329 0.0303548 41.3252 0.087642C41.4175 0.144929 41.492 0.22687 41.5403 0.324227L42.3704 1.98012L44.209 2.24295C44.3175 2.25816 44.4196 2.30366 44.5035 2.37423C44.5874 2.44479 44.6497 2.53757 44.6832 2.64192C44.7168 2.74627 44.7203 2.85796 44.6933 2.9642C44.6662 3.07043 44.6098 3.1669 44.5305 3.24255L43.2063 4.51159L43.5208 6.31484C43.5399 6.42213 43.5285 6.53261 43.4879 6.63375C43.4474 6.7349 43.3793 6.82267 43.2915 6.8871C43.2036 6.95154 43.0994 6.99007 42.9908 6.99832C42.8821 7.00658 42.7733 6.98423 42.6767 6.9338L41.0177 6.0765L39.3587 6.93342Z" fill="#DDDDDD"/>
</svg>
